<svg width="32" height="99" viewBox="0 0 32 99" fill="none" xmlns="http://www.w3.org/2000/svg">
<path d="M30.455 61.7257C29.5777 61.2939 29.5777 60.0642 30.455 59.6318C31.2493 59.3095 31.9683 58.6363 31.9982 57.9022C31.9467 56.6282 30.4177 56.015 29.5579 56.4019L25.1116 58.5847C24.7751 58.7495 24.3803 58.7495 24.0437 58.5847L19.5968 56.4019C18.7644 55.9925 17.7209 56.4503 17.3568 57.1335C16.685 58.5091 17.6233 59.0976 18.7074 59.6297C19.5853 60.0622 19.5853 61.2925 18.7074 61.7245C17.5731 62.2102 16.6973 63.1619 17.3568 64.2212C17.8954 65.0317 18.7604 65.3505 19.5954 64.9541L24.0418 62.7721C24.3776 62.6073 24.7731 62.6073 25.1096 62.7721L29.5567 64.9541C31.0213 65.2926 32.0484 64.544 31.9982 63.2709C31.7377 62.1631 31.2202 62.1012 30.455 61.7257ZM30.2454 16.8363H24.5269C23.5893 16.8363 22.8429 17.5516 22.8437 18.4712C22.8437 19.8453 24.1802 19.9651 23.5621 20.9338C23.1959 21.8237 22.8268 22.8447 22.8437 23.8263C22.9126 25.1889 23.5526 25.8973 24.5255 25.9095C25.185 25.9095 25.7189 26.2733 25.7182 26.9204C25.7174 27.567 25.1842 28.0608 24.5255 28.0608C22.6958 28.0608 21.4531 27.02 20.9524 26.0384C20.4943 25.0478 20.12 24.0512 19.415 23.1274C18.3038 21.6744 16.7116 19.9236 14.0128 18.7471C11.7924 17.7777 8.43279 17.209 5.52639 17.0482C2.62007 16.8874 1.66839 16.8363 1.62287 16.8363C0.622169 16.893 0.0122164 17.6129 8.87242e-05 18.4937C0.0200246 19.5183 0.837141 20.2731 1.63175 20.297C1.67162 20.297 4.32493 20.1744 6.93137 20.7888C8.69869 21.3596 11.4511 21.9619 11.4605 24.1179C11.3629 26.2447 8.5461 27.0431 6.93137 27.4464C4.31554 28.0888 1.31352 28.1126 1.31352 28.1126C0.842705 28.1126 0.000753253 28.8212 8.87242e-05 29.7401C8.87242e-05 30.5746 0.524564 31.3567 1.85562 31.3799C2.58818 31.3398 5.11596 31.2778 7.75098 30.6305C9.32691 30.2428 10.9077 29.6957 12.2855 28.6815C13.2733 27.9546 14.1912 26.7639 14.5563 25.4116C14.8119 24.4682 16.0622 24.2276 16.9266 25.3474C17.7909 26.4667 18.8174 28.1023 20.8634 29.3707C22.6205 30.4606 25.2861 31.105 27.4623 31.2407C28.2724 31.2907 29.5871 31.5574 30.4407 31.522C31.3491 31.4494 31.9889 30.5335 31.9982 29.7624C31.9683 28.9933 31.3091 28.0927 30.5322 28.0613C30.5181 28.062 29.1692 28.0813 28.134 27.5921C26.5153 26.7881 26.2976 25.7084 26.2894 24.1389C26.3425 22.4507 26.5581 21.4507 28.134 20.6849C29.792 19.8519 31.9982 20.5556 31.9982 18.6986C31.9982 17.454 31.2697 16.8234 30.2454 16.8363ZM31.9982 96.3247C31.9982 94.1944 29.9026 91.6835 28.1998 90.8476C26.368 89.949 24.5906 89.7964 24.5906 89.7964H18.8377C17.9014 89.7964 17.1322 90.6908 17.1315 91.6106C17.1315 92.518 18.1633 93.2468 18.6437 93.2564C18.7494 93.2557 24.5696 93.2564 24.5696 93.2564C25.2283 93.257 26.2894 93.2672 26.2894 94.4206C26.2894 95.6447 25.2283 95.4077 24.5696 95.4083C21.6959 95.4083 18.822 95.4083 15.9483 95.4083C15.2895 95.4083 14.8682 95.0678 14.8682 94.4206V85.9871C14.8682 82.4411 11.9177 78.5187 7.35617 78.5718C7.34205 78.5718 5.57865 78.6843 3.74687 79.5999C2.04418 80.4356 8.87242e-05 82.7151 8.87242e-05 85.9871C8.87242e-05 89.0184 1.14598 91.0607 3.44641 93.2564C4.72871 93.2564 5.67509 93.2705 5.71097 94.4164C5.71097 95.7893 4.49736 95.4083 1.60791 95.4083C0.671672 95.4083 8.87242e-05 96.3089 8.87242e-05 97.2293C8.87242e-05 98.3384 0.922117 98.8684 1.59229 98.8684H30.2534C30.2534 98.8684 31.9982 98.9738 31.9982 96.3247ZM27.6624 1.68233C24.9014 -0.123501 21.7725 0.00186336 18.8607 0.00186336C17.9238 0.00186336 17.1315 0.721948 17.1315 1.64155C17.1315 2.82756 17.1074 3.60068 17.0134 4.10206C16.9212 4.85067 16.2414 5.62463 15.702 5.65466C14.5744 5.61712 13.394 6.09882 12.6893 6.98655C12.1125 7.74125 11.8295 8.67186 11.6593 9.90883C11.5753 10.5316 11.0059 11.281 10.3689 11.2243C6.71566 10.5567 3.67427 9.48853 3.44641 7.26849C3.54676 5.14303 6.19466 4.34529 7.81071 3.94142C10.4259 3.29966 13.1227 3.46047 13.1227 3.46047C14.0595 3.45972 14.7929 2.56598 14.7929 1.64622C14.7923 0.72737 14.0094 0.00186336 13.1891 0.00186336C13.1891 0.00186336 10.1159 -0.0323331 6.99318 0.75873C5.41592 1.14625 3.83583 1.69259 2.45785 2.70686C1.15953 3.66207 0 5.37532 0 7.26849C0 9.16298 1.15953 10.8748 2.45785 11.8307C3.8365 12.8456 5.41658 13.3927 6.99318 13.7797C10.1159 14.5459 13.1186 14.685 13.1186 14.685C14.0555 14.6843 14.7883 13.8123 14.7894 12.8928C14.7894 11.7067 14.87 10.9334 14.9639 10.432C15.0847 9.58395 15.681 8.96138 16.3098 8.88164C17.4368 8.91917 18.6178 8.43748 19.3228 7.55049C21.0004 5.63214 19.6362 3.39224 21.6361 3.46047C23.2276 3.57557 24.6625 3.65123 25.8308 4.4161C27.0492 5.21384 28.1863 6.83325 28.5539 9.94562C28.6361 10.6413 28.0186 11.2522 27.305 11.2517H18.8825C17.9455 11.2517 17.1329 11.973 17.1329 12.8928C17.1329 13.8123 17.9455 14.685 18.8825 14.685H29.1599C31.0052 14.685 32.0099 14.5971 31.9982 10.9688C31.9883 7.57018 30.3532 3.44404 27.6624 1.68233ZM30.3158 33.7376L1.67586 33.6733C0.739539 33.6733 0.000753253 34.4581 8.87242e-05 35.3763C8.87242e-05 36.296 0.738875 37.1333 1.67586 37.134H15.6735C16.6565 37.134 17.1329 37.5625 17.1329 38.168C17.1329 38.7483 16.3201 39.2968 14.755 39.2853C12.1397 39.8057 8.48438 40.7914 5.62416 41.7273C2.27552 42.3365 4.14584 39.2873 1.67911 39.2853C0.742369 39.2858 8.87242e-05 40.0823 8.87242e-05 41.0019C8.87242e-05 41.7983 0.311419 42.4938 0.78365 43.1063C1.10512 43.5238 1.10512 44.0994 0.78365 44.5172C0.313496 45.1301 8.87242e-05 45.8263 8.87242e-05 46.6235C0.000753253 47.5384 0.73813 48.3504 1.66698 48.3585C3.86291 48.2236 2.4831 45.2166 5.64726 45.8699C8.50805 46.8061 12.1099 47.8367 14.7225 48.3585C16.5622 48.3585 17.1329 48.9028 17.1329 49.4743C17.1329 50.1815 16.801 50.5057 15.6931 50.5099H1.68525C0.770113 50.5099 8.87242e-05 51.283 8.87242e-05 52.202C8.87242e-05 53.1216 0.748433 53.9705 1.68525 53.9705C11.234 53.9705 20.7766 53.9705 30.328 53.9705C31.265 53.971 31.9989 53.1441 31.9982 52.2245C31.9982 50.8587 31.0431 49.7059 30.0689 49.0227C26.5541 46.105 21.0317 45.475 17.1329 44.8978H13.1464C12.1288 44.8978 11.4598 44.4292 11.4605 43.7814C11.4612 43.1342 12.0575 42.7459 13.1464 42.7459H17.1329C21.4435 42.233 26.6307 41.7152 30.0689 38.5406C31.0416 37.8588 32.005 36.7041 31.9982 35.5807C31.9899 34.4574 31.2526 33.7396 30.3158 33.7376ZM1.62495 70.8073H9.15738C10.8419 70.8073 11.4219 71.2794 11.4219 71.9259C11.4219 72.573 10.7726 72.9585 9.15738 72.9591H1.45665C0.763379 72.9591 8.87242e-05 73.8243 8.87242e-05 74.7392C8.87242e-05 75.6575 0.664871 76.4191 1.60044 76.4198H7.34878C7.4277 76.4198 9.12614 76.4198 10.9572 75.5016C12.196 74.8938 14.1898 73.4961 14.8682 71.5485C15.2543 70.8235 15.2353 70.8073 15.9381 70.8073C16.5969 70.8078 17.1308 71.2799 17.1315 71.9266V80.3615C17.2611 84.6067 19.6965 87.5246 24.6978 87.6443C29.402 87.6318 31.9202 83.6613 31.9982 80.3615C31.9982 78.3825 30.9907 76.7046 29.7711 75.208C29.0648 74.3407 28.256 73.6949 27.4054 72.9591C26.5832 72.2461 27.0954 70.7595 28.1923 70.7562H30.2561C31.1924 70.7562 31.9683 70.0369 31.9982 69.1224C31.9982 68.1321 31.3803 67.3473 30.3653 67.3473H1.46272C0.774101 67.3473 8.87242e-05 68.2008 8.87242e-05 69.1178C8.87242e-05 70.0354 0.688707 70.8073 1.62495 70.8073ZM24.0316 84.1838C22.2616 84.1838 20.5933 83.2887 20.5784 80.358V71.9238C20.6016 71.2752 21.0642 70.8092 21.7122 70.8073C22.371 70.8298 22.8418 71.2813 22.8437 71.9142V72.9591C24.385 73.9818 26.0967 75.9137 27.1986 77.2442C28.1517 78.4145 28.5424 79.3538 28.5539 80.3791C28.6517 83.1612 26.2989 84.1838 24.0316 84.1838ZM14.8682 58.8285V57.8597C14.8682 56.7972 14.2149 56.1226 12.9267 56.1226C12.1153 56.1226 11.4219 57.0478 11.4219 57.8686C11.4219 58.5158 10.8995 59.0411 10.2401 59.0411C9.11593 59.0411 9.15738 58.2045 9.15738 57.3291C8.73465 57.1936 8.19938 57.075 7.77408 56.9728C5.41176 56.3938 3.12288 56.1526 2.14652 56.1226C0.917886 56.0342 8.87242e-05 56.9204 8.87242e-05 57.6861V63.5494C8.87242e-05 64.4684 0.610043 65.1953 1.54678 65.1953C2.48377 65.1953 3.44716 64.4691 3.44641 63.5494V60.9621C3.44641 60.2543 3.85477 59.4893 4.56997 59.5826C5.29173 59.6786 6.08003 60.0329 6.86908 60.2236C8.1973 60.5466 9.37036 60.9934 10.2116 61.612C10.8479 62.0956 11.3982 62.4097 11.4219 63.5515C11.4502 64.6911 11.3472 65.1646 12.9213 65.1953C14.2577 65.1953 15.1674 64.7396 15.2048 63.779C15.094 63.6981 14.9639 63.6264 14.8682 63.5561V58.8285ZM11.4219 94.4152C11.4219 95.0617 10.9266 95.5856 10.2679 95.5856C9.60909 95.5856 9.15738 95.0617 9.15738 94.4152V93.2503C7.14169 91.6228 3.44641 88.5927 3.44641 85.9808C3.49875 84.2907 3.71023 83.2934 5.28691 82.5264C8.17163 81.3799 11.3466 82.7416 11.4219 85.4577C11.4219 88.4434 11.4219 91.4294 11.4219 94.4152Z" fill="#80FF00"/>
</svg>
