<svg width="160" height="498" viewBox="0 0 160 498" fill="none" xmlns="http://www.w3.org/2000/svg">
<path d="M152.275 310.772C147.889 308.598 147.889 302.407 152.275 300.229C156.247 298.607 159.842 295.218 159.991 291.521C159.734 285.107 152.088 282.02 147.79 283.968L125.558 294.958C123.876 295.788 121.902 295.788 120.219 294.958L97.984 283.968C93.822 281.907 88.6046 284.212 86.7838 287.652C83.425 294.577 88.1166 297.54 93.537 300.219C97.9267 302.396 97.9267 308.591 93.537 310.766C87.8657 313.211 83.4865 318.002 86.7838 323.336C89.4768 327.417 93.802 329.022 97.9769 327.026L120.209 316.04C121.888 315.21 123.866 315.21 125.548 316.04L147.783 327.026C155.107 328.73 160.242 324.961 159.991 318.551C158.689 312.974 156.101 312.662 152.275 310.772ZM151.227 84.7661H122.635C117.946 84.7661 114.215 88.3676 114.218 92.9975C114.218 99.9158 120.901 100.519 117.811 105.396C115.979 109.876 114.134 115.017 114.218 119.959C114.563 126.819 117.763 130.386 122.628 130.447C125.925 130.447 128.594 132.279 128.591 135.537C128.587 138.792 125.921 141.278 122.628 141.278C113.479 141.278 107.265 136.038 104.762 131.096C102.472 126.109 100.6 121.091 97.0749 116.44C91.519 109.124 83.5579 100.31 70.0642 94.3867C58.962 89.5057 42.164 86.6425 27.6319 85.8328C13.1004 85.0236 8.34194 84.7661 8.11434 84.7661C3.11085 85.0517 0.0610819 88.6758 0.000443621 93.1109C0.100123 98.2691 4.18571 102.069 8.15876 102.19C8.35812 102.19 21.6246 101.572 34.6569 104.666C43.4935 107.539 57.2554 110.572 57.3023 121.427C56.8147 132.135 42.7305 136.154 34.6569 138.185C21.5777 141.419 6.56762 141.539 6.56762 141.539C4.21352 141.539 0.00376627 145.107 0.000443621 149.733C0.000443621 153.934 2.62282 157.872 9.27808 157.989C12.9409 157.787 25.5798 157.475 38.7549 154.216C46.6346 152.264 54.5383 149.51 61.4274 144.403C66.3666 140.744 70.956 134.749 72.7813 127.94C74.0593 123.19 80.3109 121.979 84.6328 127.617C88.9547 133.252 94.087 141.487 104.317 147.873C113.102 153.361 126.43 156.605 137.312 157.288C141.362 157.54 147.935 158.883 152.204 158.705C156.745 158.339 159.944 153.728 159.991 149.845C159.842 145.973 156.546 141.439 152.661 141.281C152.59 141.284 145.846 141.382 140.67 138.918C132.576 134.87 131.488 129.435 131.447 121.533C131.713 113.033 132.79 107.998 140.67 104.143C148.96 99.9489 159.991 103.492 159.991 94.1423C159.991 87.8759 156.348 84.701 151.227 84.7661ZM159.991 484.968C159.991 474.243 149.513 461.601 140.999 457.393C131.84 452.868 122.953 452.1 122.953 452.1H94.1883C89.5071 452.1 85.6611 456.603 85.6574 461.234C85.6574 465.803 90.8167 469.472 93.2185 469.52C93.7472 469.517 122.848 469.52 122.848 469.52C126.142 469.523 131.447 469.575 131.447 475.382C131.447 481.545 126.142 480.351 122.848 480.355C108.479 480.355 94.1102 480.355 79.7414 480.355C76.4475 480.355 74.3409 478.64 74.3409 475.382V432.921C74.3409 415.068 59.5888 395.32 36.7809 395.587C36.7103 395.587 27.8932 396.154 18.7344 400.764C10.2209 404.971 0.000443621 416.448 0.000443621 432.921C0.000443621 448.183 5.72991 458.466 17.2321 469.52C23.6435 469.52 28.3754 469.591 28.5549 475.361C28.5549 482.272 22.4868 480.355 8.03955 480.355C3.35836 480.355 0.000443621 484.889 0.000443621 489.522C0.000443621 495.106 4.61059 497.775 7.96148 497.775H151.267C151.267 497.775 159.991 498.306 159.991 484.968ZM138.312 8.47007C124.507 -0.621792 108.862 0.00938149 94.3037 0.00938149C89.6192 0.00938149 85.6574 3.63481 85.6574 8.26473C85.6574 14.236 85.5369 18.1284 85.0668 20.6528C84.6058 24.4218 81.2071 28.3185 78.5099 28.4696C72.8723 28.2807 66.97 30.7059 63.4464 35.1754C60.5623 38.9751 59.1477 43.6604 58.2967 49.8882C57.8764 53.0236 55.0297 56.7968 51.8445 56.5112C33.5783 53.15 18.3713 47.7721 17.2321 36.5948C17.7338 25.8937 30.9733 21.8773 39.0535 19.8439C52.1294 16.6129 65.6136 17.4225 65.6136 17.4225C70.2977 17.4187 73.9646 12.919 73.9646 8.28825C73.9613 3.66211 70.0468 0.00938149 65.9454 0.00938149C65.9454 0.00938149 50.5794 -0.162788 34.9659 3.81999C27.0796 5.77107 19.1792 8.52173 12.2893 13.6283C5.79763 18.4375 0 27.0633 0 36.5948C0 46.1331 5.79763 54.7516 12.2893 59.5642C19.1825 64.6742 27.0829 67.4286 34.9659 69.3767C50.5794 73.2348 65.5928 73.9348 65.5928 73.9348C70.2777 73.9315 73.9414 69.5414 73.9472 64.9114C73.9472 58.9398 74.35 55.0469 74.8193 52.5221C75.4236 48.2525 78.4049 45.1181 81.5489 44.7166C87.1842 44.9056 93.0889 42.4804 96.6138 38.0146C105.002 28.3563 98.1813 17.079 108.18 17.4225C116.138 18.002 123.313 18.3829 129.154 22.2339C135.246 26.2502 140.931 34.4035 142.77 50.0734C143.181 53.5758 140.093 56.6519 136.525 56.649H94.4126C89.7276 56.649 85.6645 60.2807 85.6645 64.9114C85.6645 69.5414 89.7276 73.9348 94.4126 73.9348H145.799C155.026 73.9348 160.049 73.4922 159.991 55.2249C159.941 38.1137 151.766 17.3398 138.312 8.47007ZM151.579 169.859L8.3793 169.536C3.6977 169.536 0.00376627 173.487 0.000443621 178.11C0.000443621 182.74 3.69437 186.956 8.3793 186.96H78.3675C83.2826 186.96 85.6645 189.117 85.6645 192.165C85.6645 195.087 81.6005 197.849 73.7748 197.791C60.6985 200.411 42.4219 205.373 28.1208 210.086C11.3776 213.152 20.7292 197.8 8.39553 197.791C3.71184 197.793 0.000443621 201.803 0.000443621 206.433C0.000443621 210.443 1.5571 213.945 3.91825 217.028C5.52558 219.13 5.52558 222.028 3.91825 224.132C1.56748 227.218 0.000443621 230.723 0.000443621 234.737C0.00376627 239.342 3.69065 243.431 8.33488 243.472C19.3146 242.792 12.4155 227.653 28.2363 230.942C42.5403 235.656 60.5494 240.845 73.6124 243.472C82.8111 243.472 85.6645 246.212 85.6645 249.089C85.6645 252.65 84.0048 254.282 78.4655 254.303H8.42626C3.85057 254.303 0.000443621 258.196 0.000443621 262.823C0.000443621 267.453 3.74216 271.727 8.42626 271.727C56.1702 271.727 103.883 271.727 151.64 271.727C156.325 271.729 159.995 267.566 159.991 262.936C159.991 256.059 155.215 250.255 150.344 246.815C132.77 232.126 105.158 228.954 85.6645 226.048H65.7319C60.6441 226.048 57.299 223.689 57.3023 220.427C57.3061 217.169 60.2877 215.214 65.7319 215.214H85.6645C107.218 212.631 133.153 210.024 150.344 194.042C155.208 190.608 160.025 184.795 159.991 179.139C159.95 173.483 156.263 169.87 151.579 169.859ZM8.12473 356.495H45.7869C54.2094 356.495 57.1097 358.872 57.1097 362.127C57.1097 365.385 53.863 367.326 45.7869 367.329H7.28324C3.81689 367.329 0.000443621 371.685 0.000443621 376.291C0.000443621 380.915 3.32436 384.749 8.00223 384.753H36.7439C37.1385 384.753 45.6307 384.753 54.7859 380.13C60.9801 377.07 70.9489 370.033 74.3409 360.227C76.2713 356.577 76.1766 356.495 79.6907 356.495C82.9847 356.498 85.6541 358.875 85.6574 362.131V404.598C86.3053 425.971 98.4824 440.662 123.489 441.265C147.01 441.202 159.601 421.212 159.991 404.598C159.991 394.634 154.954 386.186 148.855 378.651C145.324 374.285 141.28 371.033 137.027 367.329C132.916 363.739 135.477 356.255 140.962 356.238H151.28C155.962 356.238 159.842 352.616 159.991 348.012C159.991 343.026 156.902 339.075 151.827 339.075H7.3136C3.87051 339.075 0.000443621 343.372 0.000443621 347.989C0.000443621 352.609 3.44354 356.495 8.12473 356.495ZM120.158 423.842C111.308 423.842 102.967 419.335 102.892 404.58V362.116C103.008 358.851 105.321 356.505 108.561 356.495C111.855 356.609 114.209 358.882 114.218 362.068V367.329C121.925 372.478 130.484 382.204 135.993 388.903C140.758 394.795 142.712 399.524 142.77 404.686C143.258 418.694 131.495 423.842 120.158 423.842ZM74.3409 296.185V291.308C74.3409 285.958 71.0747 282.562 64.6334 282.562C60.5764 282.562 57.1097 287.22 57.1097 291.353C57.1097 294.611 54.4976 297.256 51.2003 297.256C45.5797 297.256 45.7869 293.044 45.7869 288.636C43.6733 287.954 40.9969 287.357 38.8704 286.842C27.0588 283.927 15.6144 282.713 10.7326 282.562C4.58943 282.117 0.000443621 286.579 0.000443621 290.433V319.954C0.000443621 324.581 3.05021 328.24 7.7339 328.24C12.4188 328.24 17.2358 324.584 17.2321 319.954V306.927C17.2321 303.364 19.2738 299.512 22.8498 299.982C26.4586 300.465 30.4002 302.249 34.3454 303.209C40.9865 304.835 46.8518 307.085 51.0579 310.199C54.2397 312.634 56.9909 314.215 57.1097 319.964C57.2509 325.702 56.7358 328.086 64.6064 328.24C71.2886 328.24 75.8369 325.946 76.0238 321.11C75.4702 320.702 74.8193 320.342 74.3409 319.988V296.185ZM57.1097 475.354C57.1097 478.609 54.633 481.247 51.3394 481.247C48.0454 481.247 45.7869 478.609 45.7869 475.354V469.489C35.7085 461.295 17.2321 446.04 17.2321 432.89C17.4937 424.381 18.5512 419.359 26.4346 415.497C40.8582 409.725 56.733 416.581 57.1097 430.256C57.1097 445.288 57.1097 460.322 57.1097 475.354Z" fill="white"/>
</svg>
